<svg width="50" height="52" viewBox="0 0 50 52" fill="none" xmlns="http://www.w3.org/2000/svg">
<path d="M16.7238 40.0604C16.7238 40.262 16.4919 40.4233 16.1996 40.4233C15.8669 40.4536 15.6351 40.2923 15.6351 40.0604C15.6351 39.8588 15.8669 39.6975 16.1593 39.6975C16.4617 39.6673 16.7238 39.8286 16.7238 40.0604ZM13.5887 39.6068C13.5181 39.8084 13.7198 40.0403 14.0222 40.1007C14.2843 40.2016 14.5867 40.1007 14.6472 39.8991C14.7077 39.6975 14.5161 39.4657 14.2137 39.3749C13.9516 39.3044 13.6593 39.4052 13.5887 39.6068ZM18.0444 39.4354C17.752 39.506 17.5504 39.6975 17.5806 39.9294C17.6109 40.131 17.873 40.262 18.1754 40.1915C18.4677 40.1209 18.6694 39.9294 18.6391 39.7278C18.6089 39.5362 18.3367 39.4052 18.0444 39.4354ZM24.6774 0.806396C10.6956 0.806396 0 11.4213 0 25.4032C0 36.5826 7.03629 46.1491 17.0867 49.5161C18.377 49.7479 18.8306 48.9516 18.8306 48.2963C18.8306 47.6713 18.8004 44.2237 18.8004 42.1068C18.8004 42.1068 11.744 43.6189 10.2621 39.1028C10.2621 39.1028 9.1129 36.1693 7.45968 35.4132C7.45968 35.4132 5.15121 33.8306 7.62097 33.8608C7.62097 33.8608 10.131 34.0624 11.5121 36.4616C13.7198 40.3528 17.4194 39.2338 18.8609 38.5685C19.0927 36.9556 19.748 35.8366 20.4738 35.1713C14.8387 34.5463 9.15323 33.7298 9.15323 24.0322C9.15323 21.26 9.91936 19.8689 11.5323 18.0947C11.2702 17.4395 10.4133 14.7378 11.7944 11.2499C13.9012 10.5947 18.75 13.9717 18.75 13.9717C20.7661 13.4072 22.9335 13.1149 25.0806 13.1149C27.2278 13.1149 29.3952 13.4072 31.4113 13.9717C31.4113 13.9717 36.2601 10.5846 38.3669 11.2499C39.748 14.7479 38.8911 17.4395 38.629 18.0947C40.2419 19.879 41.2298 21.2701 41.2298 24.0322C41.2298 33.76 35.2923 34.5362 29.6573 35.1713C30.5847 35.9677 31.371 37.4798 31.371 39.8487C31.371 43.2459 31.3407 47.4495 31.3407 48.2762C31.3407 48.9314 31.8044 49.7278 33.0847 49.4959C43.1653 46.1491 50 36.5826 50 25.4032C50 11.4213 38.6593 0.806396 24.6774 0.806396ZM9.79839 35.5745C9.66734 35.6753 9.69758 35.9072 9.86895 36.0987C10.0302 36.26 10.2621 36.3306 10.3931 36.1995C10.5242 36.0987 10.494 35.8669 10.3226 35.6753C10.1613 35.5141 9.92943 35.4435 9.79839 35.5745ZM8.70968 34.758C8.63911 34.8891 8.73992 35.0504 8.94153 35.1512C9.10282 35.252 9.30444 35.2217 9.375 35.0806C9.44556 34.9495 9.34476 34.7883 9.14314 34.6874C8.94153 34.627 8.78024 34.6572 8.70968 34.758ZM11.9758 38.3467C11.8145 38.4778 11.875 38.7802 12.1069 38.9717C12.3387 39.2036 12.631 39.2338 12.7621 39.0725C12.8931 38.9415 12.8327 38.6391 12.631 38.4475C12.4093 38.2157 12.1069 38.1854 11.9758 38.3467ZM10.8266 36.8649C10.6653 36.9657 10.6653 37.2278 10.8266 37.4596C10.9879 37.6915 11.2601 37.7923 11.3911 37.6915C11.5524 37.5604 11.5524 37.2983 11.3911 37.0665C11.25 36.8346 10.9879 36.7338 10.8266 36.8649Z" fill="#FFF7F7"/>
</svg>
